<?xml version="1.0" encoding="iso-8859-1"?>
<!-- Generator: Adobe Illustrator 19.1.1, SVG Export Plug-In . SVG Version: 6.00 Build 0)  -->
<svg version="1.1" id="Layer_1" xmlns="http://www.w3.org/2000/svg" xmlns:xlink="http://www.w3.org/1999/xlink" x="0px" y="0px"
	 viewBox="0 0 40 40" style="enable-background:new 0 0 40 40;" xml:space="preserve">
<g>
	<path style="fill:#FFFFFF;" d="M20,32.5C10.238,32.5,2.002,21.886,0.616,20C2.002,18.115,10.245,7.5,20,7.5
		c9.762,0,17.998,10.614,19.384,12.5C37.998,21.885,29.755,32.5,20,32.5z"/>
	<g>
		<path style="fill:#BA9B48;" d="M20,8c9.097,0,16.906,9.548,18.76,12C36.906,22.452,29.097,32,20,32S3.094,22.452,1.24,20
			C3.094,17.548,10.903,8,20,8 M20,7C8.954,7,0,20,0,20s8.954,13,20,13s20-13,20-13S31.046,7,20,7L20,7z"/>
	</g>
</g>
<g>
	<path style="fill:#8BB7F0;" d="M20,28.5c-4.687,0-8.5-3.813-8.5-8.5s3.813-8.5,8.5-8.5s8.5,3.813,8.5,8.5S24.687,28.5,20,28.5z"/>
	<path style="fill:#4E7AB5;" d="M20,12c4.411,0,8,3.589,8,8s-3.589,8-8,8s-8-3.589-8-8S15.589,12,20,12 M20,11c-4.971,0-9,4.029-9,9
		s4.029,9,9,9s9-4.029,9-9S24.971,11,20,11L20,11z"/>
</g>
<circle style="fill:#36404D;" cx="20" cy="20" r="4"/>
<circle style="fill:#FFFFFF;" cx="23" cy="16" r="2"/>
</svg>
